<?xml version="1.0" encoding="utf-8"?>
<!-- Generator: Adobe Illustrator 18.0.0, SVG Export Plug-In . SVG Version: 6.00 Build 0)  -->
<!DOCTYPE svg PUBLIC "-//W3C//DTD SVG 1.1//EN" "http://www.w3.org/Graphics/SVG/1.1/DTD/svg11.dtd">
<svg version="1.1" id="Layer_1" xmlns="http://www.w3.org/2000/svg" xmlns:xlink="http://www.w3.org/1999/xlink" x="0px" y="0px"
	 viewBox="0 0 805 153.1" enable-background="new 0 0 805 153.1" xml:space="preserve">
<rect x="247.7" y="17.6" fill="#FBF6B3" width="76.5" height="96.5"/>
<g>
	<path fill="#010101" d="M33.6,25.3h46.2v5.1H39.6v33.7h34.1v5.1H39.6v40.8h-5.9V25.3z"/>
	<path fill="#010101" d="M92.2,28.4c0-3.2,2.3-5.1,5.1-5.1c2.8,0,5.1,1.9,5.1,5.1c0,3-2.3,5-5.1,5C94.5,33.4,92.2,31.4,92.2,28.4z
		 M94.3,48.3h5.7v61.7h-5.7V48.3z"/>
	<path fill="#010101" d="M113.5,48.3h6.2L133.6,87c1.9,5.9,4.2,12.1,6.2,17.7h0.5c2.1-5.7,4.2-11.8,6.3-17.7l13.9-38.7h5.8
		l-22.9,61.7h-6.7L113.5,48.3z"/>
	<path fill="#010101" d="M201.3,46.8c14.7,0,23.7,10.4,23.7,28.5c0,1.5,0,3.1-0.3,4.6h-44.5c0.3,15.6,9.4,26.7,23.3,26.7
		c6.7,0,12-2.2,16.6-5.5l2.3,4.4c-4.9,3-10.4,6-19.4,6c-15.8,0-28.5-12.1-28.5-32.3S187.6,46.8,201.3,46.8z M219.6,75.6
		c0-15.8-7.1-23.9-18.1-23.9c-10.5,0-19.9,9.1-21.2,23.9H219.6z"/>
</g>
<g>
	<g>
		<polygon fill="#010101" points="273.7,108.9 258.3,108.9 255.8,106.4 255.8,26.4 258.3,23.8 292.7,23.8 311.7,18 314.9,20.6
			313.2,63.5 309.8,65.8 293.4,60.1 295.1,55.3 308.2,59.9 309.7,23.9 293.1,28.9 260.9,28.9 260.9,103.8 271,103.8 270.6,98.6
			275.6,98.2 276.2,106.2 		"/>
		<polygon fill="#010101" points="284,70.3 256.6,70.3 247.7,68.9 248.5,63.9 257,65.2 284,65.2 		"/>
		<circle fill="#010101" cx="274.7" cy="43.5" r="4.1"/>
		<rect x="291.7" y="34.3" fill="#010101" width="9.3" height="1.9"/>
		<rect x="291.7" y="40.6" fill="#010101" width="9.3" height="1.9"/>
		<rect x="291.7" y="46.9" fill="#010101" width="9.3" height="1.9"/>
	</g>
	<g>
		<path fill="#010101" d="M324.2,17.6h5.7v85c0,2.7,1.2,4,2.7,4c0.5,0,1,0,2.3-0.3l1,4.6c-1.2,0.4-2.3,0.6-4.1,0.6
			c-5,0-7.6-3.1-7.6-9.8V17.6z"/>
		<path fill="#010101" d="M376.4,46.8c14.7,0,23.7,10.4,23.7,28.5c0,1.5,0,3.1-0.3,4.6h-44.5c0.3,15.6,9.4,26.7,23.3,26.7
			c6.7,0,12-2.2,16.6-5.5l2.3,4.4c-4.9,3-10.4,6-19.4,6c-15.8,0-28.5-12.1-28.5-32.3S362.7,46.8,376.4,46.8z M394.7,75.6
			c0-15.8-7.1-23.9-18.1-23.9c-10.5,0-19.9,9.1-21.2,23.9H394.7z"/>
		<path fill="#010101" d="M422.5,115.5V138h-5.7V48.3h4.9l0.5,7.7h0.4c6-4.8,13.4-9.3,21-9.3c16.5,0,24.7,12.3,24.7,31.5
			c0,21-12.7,33.3-27.3,33.3c-5.8,0-12.1-2.8-18.5-7.6V115.5z M440.7,106.6c12.5,0,21.5-11.6,21.5-28.3c0-15.2-5.4-26.5-19.5-26.5
			c-6.2,0-12.7,3.6-20.2,10.2v36.6C429.6,104.4,436,106.6,440.7,106.6z"/>
		<path fill="#010101" d="M486.8,17.6h5.7v26.7V58c6.4-6.4,12.9-11.2,21.3-11.2c12.7,0,18.6,7.7,18.6,23.7v39.6h-5.7V71.2
			c0-13.1-4.1-19.3-14.1-19.3c-7.3,0-12.6,3.9-20.2,11.6v46.5h-5.7V17.6z"/>
		<path fill="#010101" d="M591.1,71.4c0.3-9.4-2.4-19.5-14.5-19.5c-8.4,0-15.6,4.1-19.7,7.2l-2.6-4.2c4.4-3.1,12.9-8,22.9-8
			c14.7,0,19.5,10.5,19.5,23.8v39.5H592l-0.6-8h-0.3c-6.3,5-13.8,9.5-21.9,9.5c-9.8,0-18-5.3-18-17C551.2,81,563.7,74.4,591.1,71.4z
			 M570.1,106.7c7.1,0,13.4-3.5,21-10v-21c-25.3,3-33.9,8.9-33.9,18.6C557.1,103.2,563,106.7,570.1,106.7z"/>
		<path fill="#010101" d="M618.9,48.3h4.9l0.5,9.5h0.4c6.3-6.3,12.7-11.1,21.2-11.1c12.7,0,18.6,7.7,18.6,23.7v39.6h-5.7V71.2
			c0-13.1-4.1-19.3-14.1-19.3c-7.3,0-12.6,3.9-20.2,11.6v46.5h-5.7V48.3z"/>
		<path fill="#010101" d="M688.7,53.2H679v-4.4l9.8-0.5l0.8-17.9h4.9v17.9h17.9v4.9h-17.9v40.2c0,7.8,1.9,13.1,10.4,13.1
			c2.3,0,5.5-0.9,7.7-1.9l1.5,4.6c-3.6,1.3-7.5,2.3-10,2.3c-12,0-15.4-7.6-15.4-18.6V53.2z"/>
		<path fill="#010101" d="M723,98.9c5.3,4.4,10.8,7.8,19.7,7.8c9.6,0,14.7-5.7,14.7-12.2c0-7.7-8-11.1-15-13.6
			c-9.4-3.3-19.7-7.1-19.7-17.6c0-9,7.1-16.5,19.9-16.5c6.6,0,13.1,2.7,17.6,6.4l-3.1,4c-4.1-3.1-8.5-5.5-14.8-5.5
			c-9.5,0-13.9,5.5-13.9,11.2c0,7.1,7.2,9.8,14.5,12.5c9.6,3.6,20.2,6.8,20.2,18.9c0,9.3-7.5,17.4-20.8,17.4
			c-9.1,0-17.1-3.9-22.6-8.5L723,98.9z"/>
	</g>
</g>
</svg>
