<?xml version="1.0" encoding="utf-8"?>
<!-- Generator: Adobe Illustrator 18.0.0, SVG Export Plug-In . SVG Version: 6.00 Build 0)  -->
<!DOCTYPE svg PUBLIC "-//W3C//DTD SVG 1.1//EN" "http://www.w3.org/Graphics/SVG/1.1/DTD/svg11.dtd">
<svg version="1.1" id="Layer_1" xmlns="http://www.w3.org/2000/svg" xmlns:xlink="http://www.w3.org/1999/xlink" x="0px" y="0px"
	 viewBox="31.8 233.3 769.6 131.9" enable-background="new 31.8 233.3 769.6 131.9" xml:space="preserve">
<rect x="259.1" y="236" fill="#FBF6B3" width="80" height="100.9"/>
<g>
	<path fill="#010101" d="M35.1,244h48.3v5.3h-42v35.2h35.7v5.3H41.4v42.7h-6.2V244H35.1z"/>
	<path fill="#010101" d="M96.4,247.3c0-3.3,2.4-5.3,5.3-5.3c2.9,0,5.3,2,5.3,5.3c0,3.1-2.4,5.2-5.3,5.2S96.4,250.4,96.4,247.3z
		 M98.6,268.1h6v64.5h-6V268.1z"/>
	<path fill="#010101" d="M118.7,268.1h6.5l14.5,40.5c2,6.2,4.4,12.7,6.5,18.5h0.5c2.2-6,4.4-12.3,6.6-18.5l14.5-40.5h6.1L150,332.6
		h-7L118.7,268.1z"/>
	<path fill="#010101" d="M210.5,266.5c15.4,0,24.8,10.9,24.8,29.8c0,1.6,0,3.2-0.3,4.8h-46.5c0.3,16.3,9.8,27.9,24.4,27.9
		c7,0,12.5-2.3,17.4-5.8l2.4,4.6c-5.1,3.1-10.9,6.3-20.3,6.3c-16.5,0-29.8-12.7-29.8-33.8C182.5,279.3,196.2,266.5,210.5,266.5z
		 M229.7,296.6c0-16.5-7.4-25-18.9-25c-11,0-20.8,9.5-22.2,25H229.7z"/>
</g>
<g>
	<g>
		<polygon fill="#010101" points="286.2,331.5 270.1,331.5 267.5,328.9 267.5,245.2 270.1,242.5 306.1,242.5 326,236.4 329.3,239.1 
			327.6,284 324,286.4 306.8,280.4 308.6,275.4 322.3,280.2 323.9,242.6 306.5,247.8 272.9,247.8 272.9,326.1 283.4,326.1 
			283,320.7 288.2,320.3 288.9,328.6 		"/>
		<polygon fill="#010101" points="297,291.1 268.4,291.1 259.1,289.6 259.9,284.4 268.8,285.8 297,285.8 		"/>
		<circle fill="#010101" cx="287.3" cy="263.1" r="4.3"/>
		<rect x="305.1" y="253.5" fill="#010101" width="9.7" height="2"/>
		<rect x="305.1" y="260" fill="#010101" width="9.7" height="2"/>
		<rect x="305.1" y="266.6" fill="#010101" width="9.7" height="2"/>
	</g>
	<g>
		<path fill="#010101" d="M339.1,236h6v88.9c0,2.8,1.3,4.2,2.8,4.2c0.5,0,1,0,2.4-0.3l1,4.8c-1.3,0.4-2.4,0.6-4.3,0.6
			c-5.2,0-7.9-3.2-7.9-10.2V236z"/>
		<path fill="#010101" d="M393.6,266.5c15.4,0,24.8,10.9,24.8,29.8c0,1.6,0,3.2-0.3,4.8h-46.5c0.3,16.3,9.8,27.9,24.4,27.9
			c7,0,12.5-2.3,17.4-5.8l2.4,4.6c-5.1,3.1-10.9,6.3-20.3,6.3c-16.5,0-29.8-12.7-29.8-33.8C365.6,279.3,379.3,266.5,393.6,266.5z
			 M412.8,296.6c0-16.5-7.4-25-18.9-25c-11,0-20.8,9.5-22.2,25H412.8z"/>
		<path fill="#010101" d="M441.9,338.4v23.5h-6v-93.8h5.1l0.5,8.1h0.4c6.3-5,14-9.7,22-9.7c17.3,0,25.8,12.9,25.8,32.9
			c0,22-13.3,34.8-28.6,34.8c-6.1,0-12.7-2.9-19.3-7.9V338.4z M460.9,329.1c13.1,0,22.5-12.1,22.5-29.6c0-15.9-5.6-27.7-20.4-27.7
			c-6.5,0-13.3,3.8-21.1,10.7v38.3C449.3,326.8,456,329.1,460.9,329.1z"/>
		<path fill="#010101" d="M509.1,236h6v27.9v14.3c6.7-6.7,13.5-11.7,22.3-11.7c13.3,0,19.5,8.1,19.5,24.8v41.4h-6V292
			c0-13.7-4.3-20.2-14.7-20.2c-7.6,0-13.2,4.1-21.1,12.1v48.6h-6V236H509.1z"/>
		<path fill="#010101" d="M618.2,292.3c0.3-9.8-2.5-20.4-15.2-20.4c-8.8,0-16.3,4.3-20.6,7.5l-2.7-4.4c4.6-3.2,13.5-8.4,23.9-8.4
			c15.4,0,20.4,11,20.4,24.9v41.3h-4.9l-0.6-8.4h-0.3c-6.6,5.2-14.4,9.9-22.9,9.9c-10.2,0-18.8-5.5-18.8-17.8
			C576.5,302.3,589.5,295.4,618.2,292.3z M596.2,329.2c7.4,0,14-3.7,22-10.5v-22c-26.5,3.1-35.5,9.3-35.5,19.5
			C582.6,325.5,588.8,329.2,596.2,329.2z"/>
		<path fill="#010101" d="M647.3,268.1h5.1l0.5,9.9h0.4c6.6-6.6,13.3-11.6,22.2-11.6c13.3,0,19.5,8.1,19.5,24.8v41.4h-6V292
			c0-13.7-4.3-20.2-14.7-20.2c-7.6,0-13.2,4.1-21.1,12.1v48.6h-6v-64.5H647.3z"/>
		<path fill="#010101" d="M720.3,273.2h-10.1v-4.6l10.2-0.5l0.8-18.7h5.1v18.7H745v5.1h-18.7v42c0,8.2,2,13.7,10.9,13.7
			c2.4,0,5.8-0.9,8.1-2l1.6,4.8c-3.8,1.4-7.8,2.4-10.5,2.4c-12.5,0-16.1-7.9-16.1-19.5V273.2z"/>
		<path fill="#010101" d="M756.1,321c5.5,4.6,11.3,8.2,20.6,8.2c10,0,15.4-6,15.4-12.8c0-8.1-8.4-11.6-15.7-14.2
			c-9.8-3.5-20.6-7.4-20.6-18.4c0-9.4,7.4-17.3,20.8-17.3c6.9,0,13.7,2.8,18.4,6.7l-3.2,4.2c-4.3-3.2-8.9-5.8-15.5-5.8
			c-9.9,0-14.5,5.8-14.5,11.7c0,7.4,7.5,10.2,15.2,13.1c10,3.8,21.1,7.1,21.1,19.8c0,9.7-7.8,18.2-21.8,18.2
			c-9.5,0-17.9-4.1-23.6-8.9L756.1,321z"/>
	</g>
</g>
</svg>
