<?xml version="1.0" encoding="utf-8"?>
<!-- Generator: Adobe Illustrator 18.0.0, SVG Export Plug-In . SVG Version: 6.00 Build 0)  -->
<!DOCTYPE svg PUBLIC "-//W3C//DTD SVG 1.1//EN" "http://www.w3.org/Graphics/SVG/1.1/DTD/svg11.dtd">
<svg version="1.1" id="Layer_1" xmlns="http://www.w3.org/2000/svg" xmlns:xlink="http://www.w3.org/1999/xlink" x="0px" y="0px"
	 viewBox="0 0 283.5 283.5" enable-background="new 0 0 283.5 283.5" xml:space="preserve">
<g>
	<g>
		<rect x="6.7" y="6" fill="#FCF9CE" width="270.8" height="270.8"/>
		<path fill="#010101" d="M284.2,283.5H0V-0.7h284.2V283.5z M13.4,270.1h257.4V12.7H13.4V270.1z"/>
	</g>
	<g>
		<g>
			<polygon fill="#010101" points="119.6,243.4 84.4,243.4 78.6,237.6 78.6,54.4 84.4,48.6 163.1,48.6 206.5,35.4 214,41.1 
				210,139.5 202.3,144.7 164.8,131.6 168.6,120.7 198.7,131.2 202.1,48.8 164,60.2 90.2,60.2 90.2,231.8 113.3,231.8 112.4,219.8 
				124,219 125.4,237.2 			"/>
		</g>
		<g>
			<polygon fill="#010101" points="143.3,155 80.3,155 60,151.7 61.9,140.3 81.3,143.5 143.3,143.4 			"/>
		</g>
		<g>
			<circle fill="#010101" cx="121.9" cy="93.7" r="9.5"/>
		</g>
		<g>
			<rect x="160.8" y="72.5" fill="#010101" width="21.2" height="4.5"/>
		</g>
		<g>
			<rect x="160.8" y="86.9" fill="#010101" width="21.2" height="4.5"/>
		</g>
		<g>
			<rect x="160.8" y="101.4" fill="#010101" width="21.2" height="4.5"/>
		</g>
	</g>
</g>
</svg>
